<mxfile host="app.diagrams.net" modified="2024-01-15T19:57:09.238Z" agent="Mozilla/5.0 (X11; Linux x86_64; rv:121.0) Gecko/20100101 Firefox/121.0" etag="1it8DCip6CrqHh2gpcUm" version="22.1.18" type="device">
  <diagram name="Page-1" id="DnBegjlpuCGUi2WfoPEF">
    <mxGraphModel dx="1420" dy="857" grid="1" gridSize="10" guides="1" tooltips="1" connect="1" arrows="1" fold="1" page="1" pageScale="1" pageWidth="850" pageHeight="1100" math="0" shadow="0">
      <root>
        <mxCell id="0" />
        <mxCell id="1" parent="0" />
        <mxCell id="FAB6VMX6zJVX9zr2VpgF-9" value="" style="rounded=0;whiteSpace=wrap;html=1;" parent="1" vertex="1">
          <mxGeometry x="320" y="20" width="320" height="290" as="geometry" />
        </mxCell>
        <mxCell id="FAB6VMX6zJVX9zr2VpgF-6" style="edgeStyle=orthogonalEdgeStyle;rounded=0;orthogonalLoop=1;jettySize=auto;html=1;" parent="1" source="FAB6VMX6zJVX9zr2VpgF-2" target="FAB6VMX6zJVX9zr2VpgF-5" edge="1">
          <mxGeometry relative="1" as="geometry" />
        </mxCell>
        <mxCell id="FAB6VMX6zJVX9zr2VpgF-12" style="edgeStyle=orthogonalEdgeStyle;rounded=0;orthogonalLoop=1;jettySize=auto;html=1;" parent="1" source="FAB6VMX6zJVX9zr2VpgF-2" target="FAB6VMX6zJVX9zr2VpgF-10" edge="1">
          <mxGeometry relative="1" as="geometry" />
        </mxCell>
        <mxCell id="FAB6VMX6zJVX9zr2VpgF-2" value="User" style="rounded=0;whiteSpace=wrap;html=1;" parent="1" vertex="1">
          <mxGeometry x="60" y="150" width="120" height="60" as="geometry" />
        </mxCell>
        <mxCell id="FAB6VMX6zJVX9zr2VpgF-8" style="edgeStyle=orthogonalEdgeStyle;rounded=0;orthogonalLoop=1;jettySize=auto;html=1;entryX=0;entryY=0.5;entryDx=0;entryDy=0;" parent="1" source="FAB6VMX6zJVX9zr2VpgF-5" target="FAB6VMX6zJVX9zr2VpgF-7" edge="1">
          <mxGeometry relative="1" as="geometry" />
        </mxCell>
        <mxCell id="FAB6VMX6zJVX9zr2VpgF-5" value="&lt;div&gt;Beitrag&lt;/div&gt;&lt;div&gt;erfassen&lt;br&gt;&lt;/div&gt;" style="ellipse;whiteSpace=wrap;html=1;aspect=fixed;" parent="1" vertex="1">
          <mxGeometry x="360" y="80" width="80" height="80" as="geometry" />
        </mxCell>
        <mxCell id="FAB6VMX6zJVX9zr2VpgF-7" value="Beitrag" style="rounded=0;whiteSpace=wrap;html=1;" parent="1" vertex="1">
          <mxGeometry x="485" y="90" width="120" height="60" as="geometry" />
        </mxCell>
        <mxCell id="YPVjdYXx-7IVlD2TPrlI-5" style="edgeStyle=orthogonalEdgeStyle;rounded=0;orthogonalLoop=1;jettySize=auto;html=1;entryX=0;entryY=0.5;entryDx=0;entryDy=0;" edge="1" parent="1" source="FAB6VMX6zJVX9zr2VpgF-10" target="YPVjdYXx-7IVlD2TPrlI-3">
          <mxGeometry relative="1" as="geometry" />
        </mxCell>
        <mxCell id="FAB6VMX6zJVX9zr2VpgF-10" value="&lt;div&gt;Beitrag&lt;/div&gt;&lt;div&gt;anzeigen&lt;br&gt;&lt;/div&gt;" style="ellipse;whiteSpace=wrap;html=1;aspect=fixed;" parent="1" vertex="1">
          <mxGeometry x="360" y="190" width="80" height="80" as="geometry" />
        </mxCell>
        <mxCell id="YPVjdYXx-7IVlD2TPrlI-2" value="Pottum" style="rounded=0;whiteSpace=wrap;html=1;" vertex="1" parent="1">
          <mxGeometry x="320" y="20" width="320" height="30" as="geometry" />
        </mxCell>
        <mxCell id="YPVjdYXx-7IVlD2TPrlI-4" style="edgeStyle=orthogonalEdgeStyle;rounded=0;orthogonalLoop=1;jettySize=auto;html=1;entryX=0.5;entryY=1;entryDx=0;entryDy=0;" edge="1" parent="1" source="YPVjdYXx-7IVlD2TPrlI-3" target="FAB6VMX6zJVX9zr2VpgF-7">
          <mxGeometry relative="1" as="geometry" />
        </mxCell>
        <mxCell id="YPVjdYXx-7IVlD2TPrlI-3" value="&lt;div&gt;Beitrag&lt;/div&gt;&lt;div&gt;filtern&lt;br&gt;&lt;/div&gt;" style="ellipse;whiteSpace=wrap;html=1;aspect=fixed;" vertex="1" parent="1">
          <mxGeometry x="505" y="190" width="80" height="80" as="geometry" />
        </mxCell>
      </root>
    </mxGraphModel>
  </diagram>
</mxfile>
